<?xml version="1.0" standalone="no"?>
<!DOCTYPE svg PUBLIC "-//W3C//DTD SVG 1.1//EN" "http://www.w3.org/Graphics/SVG/1.1/DTD/svg11.dtd" >
<svg>
<metadata>
Created by FontForge 20120731 at Sat Mar  1 06:08:09 2014
 By World Wide Web Server
Copyright asciimario 2012
</metadata>
<defs>
<font id="Super-Mario-Bros.-3" horiz-adv-x="1024" >
  <font-face 
    font-family="Super Mario Bros. 3"
    font-weight="400"
    font-stretch="normal"
    units-per-em="1024"
    panose-1="0 0 4 0 0 0 0 0 0 0"
    ascent="819"
    descent="-205"
    x-height="896"
    cap-height="1024"
    bbox="0 0 1024 1024"
    underline-thickness="51"
    underline-position="126"
    unicode-range="U+0020-007A"
  />
<missing-glyph 
d="M512 145v163h-163v-163h163zM674 335v163h-325v-163h325zM512 525v163h-163v-163h163zM674 715v162h-162q-68 0 -115 -47q-48 -48 -48 -115h325zM0 0v1024h1024v-1024h-1024z" />
    <glyph glyph-name=".notdef" 
d="M512 145v163h-163v-163h163zM674 335v163h-325v-163h325zM512 525v163h-163v-163h163zM674 715v162h-162q-68 0 -115 -47q-48 -48 -48 -115h325zM0 0v1024h1024v-1024h-1024z" />
    <glyph glyph-name="glyph1" 
 />
    <glyph glyph-name="glyph2" 
 />
    <glyph glyph-name="space" unicode=" " 
 />
    <glyph glyph-name="exclam" unicode="!" 
d="M384 128v128h256v-128h-256zM384 384v128h-128v256h128v128h256v-128h128v-256h-128v-128h-256z" />
    <glyph glyph-name="dollar" unicode="$" 
d="M0 256v128h128v-128h-128zM512 256v256h-128v-256h128zM768 256v256h128v-256h-128zM512 640v128h-128v-128h128zM256 0v128h-128v128h128v256h-256v256h128v-128h128v128h-128v128h128v128h128v-128h128v128h128v-128h256v-128h-256v-128h128v-128h-128v-256h128v-128
h-128v-128h-128v128h-128v-128h-128z" />
    <glyph glyph-name="quotesingle" unicode="'" 
d="M0 512v128h128v256h256v-256h-128v-128h-256z" />
    <glyph glyph-name="asterisk" unicode="*" 
d="M128 128v128h128v-128h-128zM640 128v128h128v-128h-128zM256 256v128h128v-128h-128zM512 256v128h128v-128h-128zM384 384v128h128v-128h-128zM256 512v128h128v-128h-128zM512 512v128h128v-128h-128zM128 640v128h128v-128h-128zM640 640v128h128v-128h-128z" />
    <glyph glyph-name="comma" unicode="," 
d="M0 0v128h128v256h256v-256h-128v-128h-256z" />
    <glyph glyph-name="hyphen" unicode="-" 
d="M128 512v128h768v-128h-768z" />
    <glyph glyph-name="period" unicode="." 
d="M384 128v256h256v-256h-256z" />
    <glyph glyph-name="slash" unicode="/" 
d="M128 128v128h128v-128h-128zM256 256v128h128v-128h-128zM384 384v128h128v-128h-128zM512 512v128h128v-128h-128zM640 640v128h128v-128h-128zM768 768v128h128v-128h-128z" />
    <glyph glyph-name="zero" unicode="0" 
d="M384 256v384h256v-384h-256zM768 128v128h128v384h-128v128h-512v-128h-128v-384h128v-128h512zM128 0v128h-128v640h128v128h768v-128h128v-640h-128v-128h-768z" />
    <glyph glyph-name="one" unicode="1" 
d="M768 128v128h-128v512h-384v-128h128v-384h-128v-128h512zM128 0v384h128v128h-128v384h640v-512h128v-384h-768z" />
    <glyph glyph-name="two" unicode="2" 
d="M0 0v384h128v-256h768v128h-512v128h384v128h128v-128h128v-384h-1024zM128 384v128h-128v256h128v-128h512v-128h-384v-128h-128zM896 512v128h-128v128h-640v128h768v-128h128v-256h-128z" />
    <glyph glyph-name="three" unicode="3" 
d="M768 384v128h128v-128h-128zM0 0v384h128v128h-128v384h896v-128h128v-256h-128v128h-128v128h-640v-128h512v-128h-384v-128h384v-128h-512v-128h640v128h128v128h128v-256h-128v-128h-896z" />
    <glyph glyph-name="four" unicode="4" 
d="M768 128v128h128v128h-128v384h-128v-384h-256v384h-256v-512h512v-128h128zM512 0v128h-512v768h896v-384h128v-384h-128v-128h-384z" />
    <glyph glyph-name="five" unicode="5" 
d="M768 128v128h128v128h-128v128h-384v128h384v128h-640v-384h512v-128h-512v-128h640zM0 0v896h896v-384h128v-384h-128v-128h-896z" />
    <glyph glyph-name="six" unicode="6" 
d="M384 256v128h256v-128h-256zM768 128v128h128v128h-128v128h-384v128h384v128h-512v-128h-128v-384h128v-128h512zM128 0v128h-128v640h128v128h768v-384h128v-384h-128v-128h-768z" />
    <glyph glyph-name="seven" unicode="7" 
d="M256 256v128h128v-128h-128zM128 0v256h128v-128h256v128h128v128h128v128h128v256h-768v-128h512v-128h-128v-128h-128v128h-384v384h1024v-512h-128v-128h-128v-128h-128v-128h-512z" />
    <glyph glyph-name="eight" unicode="8" 
d="M384 256v128h256v-128h-256zM384 512v128h256v-128h-256zM768 128v128h128v128h-128v128h128v128h-128v128h-512v-128h-128v-128h128v-128h-128v-128h128v-128h512zM128 0v128h-128v640h128v128h768v-128h128v-640h-128v-128h-768z" />
    <glyph glyph-name="nine" unicode="9" 
d="M384 512v128h256v-128h-256zM768 128v128h128v384h-128v128h-512v-128h-128v-128h128v-128h384v-128h-384v-128h512zM128 0v384h-128v384h128v128h768v-128h128v-640h-128v-128h-768z" />
    <glyph glyph-name="colon" unicode=":" 
d="M768 384v256h-512v-256h512zM128 256v512h768v-512h-768z" />
    <glyph glyph-name="question" unicode="?" 
d="M384 128v128h256v-128h-256zM384 384v256h256v256h-384v-128h-256v128h128v128h640v-128h128v-384h-256v-128h-256z" />
    <glyph glyph-name="at" unicode="@" 
d="M384 256v128h256v-128h-256zM256 384v256h128v-256h-128zM384 640v128h256v-128h-256zM768 128v128h128v512h-128v128h-512v-128h-128v-512h128v-128h512zM128 0v128h-128v768h128v128h768v-128h128v-768h-128v-128h-768z" />
    <glyph glyph-name="A" unicode="A" 
d="M128 256v512h128v128h128v-256h256v256h128v-128h128v-512h-256v256h-256v-256h-256zM384 896v128h256v-128h-256z" />
    <glyph glyph-name="B" unicode="B" 
d="M640 384v256h-256v-256h256zM640 768v128h-256v-128h256zM128 256v768h640v-128h128v-128h-128v-128h128v-256h-128v-128h-640z" />
    <glyph glyph-name="C" unicode="C" 
d="M256 256v128h-128v512h128v128h512v-128h128v-128h-256v128h-256v-512h256v128h256v-128h-128v-128h-512z" />
    <glyph glyph-name="D" unicode="D" 
d="M640 384v512h128v-128h128v-256h-128v-128h-128zM128 256v768h512v-128h-256v-512h256v-128h-512z" />
    <glyph glyph-name="E" unicode="E" 
d="M128 256v768h768v-128h-512v-128h384v-128h-384v-256h512v-128h-768z" />
    <glyph glyph-name="F" unicode="F" 
d="M128 256v768h768v-128h-512v-128h384v-128h-384v-384h-256z" />
    <glyph glyph-name="G" unicode="G" 
d="M256 256v128h-128v512h128v128h512v-128h128v-128h-256v128h-256v-512h256v128h-128v128h384v-384h-640z" />
    <glyph glyph-name="H" unicode="H" 
d="M128 256v768h256v-256h256v256h256v-768h-256v384h-256v-384h-256z" />
    <glyph glyph-name="I" unicode="I" 
d="M256 256v128h128v512h-128v128h512v-128h-128v-512h128v-128h-512z" />
    <glyph glyph-name="J" unicode="J" 
d="M256 256v128h-128v128h256v-128h128v512h-128v128h512v-128h-128v-512h-128v-128h-384z" />
    <glyph glyph-name="K" unicode="K" 
d="M128 256v768h256v-256h128v128h128v128h256v-128h-128v-128h-128v-256h128v-128h128v-128h-256v128h-128v128h-128v-256h-256z" />
    <glyph glyph-name="L" unicode="L" 
d="M128 256v768h256v-640h512v-128h-768z" />
    <glyph glyph-name="M" unicode="M" 
d="M128 256v768h256v-128h128v-128h128v128h128v128h128v-768h-128v384h-128v-128h-128v128h-128v-384h-256z" />
    <glyph glyph-name="N" unicode="N" 
d="M128 256v768h256v-128h128v-128h128v-128h128v384h128v-768h-128v128h-128v128h-128v128h-128v-384h-256z" />
    <glyph glyph-name="O" unicode="O" 
d="M640 384v512h-256v-512h256zM256 256v128h-128v512h128v128h512v-128h128v-512h-128v-128h-512z" />
    <glyph glyph-name="P" unicode="P" 
d="M640 640v256h-256v-256h256zM128 256v768h640v-128h128v-256h-128v-128h-384v-256h-256z" />
    <glyph glyph-name="Q" unicode="Q" 
d="M640 384v128h-256v-128h256zM640 640v256h-256v-256h256zM256 256v128h-128v512h128v128h512v-128h128v-384h-128v-128h128v-128h-640z" />
    <glyph glyph-name="R" unicode="R" 
d="M640 640v256h-256v-256h256zM128 256v768h640v-128h128v-256h-128v-256h128v-128h-256v128h-128v128h-128v-256h-256z" />
    <glyph glyph-name="S" unicode="S" 
d="M256 256v128h-128v128h256v-128h256v256h-384v128h-128v128h128v128h512v-128h-384v-128h384v-128h128v-256h-128v-128h-512z" />
    <glyph glyph-name="T" unicode="T" 
d="M384 256v640h-256v128h768v-128h-256v-640h-256z" />
    <glyph glyph-name="U" unicode="U" 
d="M256 256v128h-128v640h256v-640h256v640h256v-640h-128v-128h-512z" />
    <glyph glyph-name="V" unicode="V" 
d="M384 256v128h-128v256h-128v384h256v-512h256v512h256v-384h-128v-256h-128v-128h-256z" />
    <glyph glyph-name="W" unicode="W" 
d="M384 256v128h-256v640h256v-512h128v512h128v-512h128v512h128v-640h-128v-128h-128v128h-128v-128h-128z" />
    <glyph glyph-name="X" unicode="X" 
d="M128 256v128h128v-128h-128zM256 384v128h128v-128h-128zM640 768v128h128v-128h-128zM640 256v128h-128v128h-128v128h-128v128h-128v256h256v-128h128v-128h128v-128h128v-128h128v-256h-256zM768 896v128h128v-128h-128z" />
    <glyph glyph-name="Y" unicode="Y" 
d="M384 256v384h-128v128h-128v256h256v-256h256v256h256v-256h-128v-128h-128v-384h-256z" />
    <glyph glyph-name="Z" unicode="Z" 
d="M128 256v256h128v128h128v128h128v128h-384v128h768v-256h-128v-128h-128v-128h-128v-128h384v-128h-768z" />
    <glyph glyph-name="a" unicode="a" 
d="M512 384v128h-256v-128h256zM128 256v128h-128v128h128v128h384v128h-384v128h640v-512h128v-128h-768z" />
    <glyph glyph-name="b" unicode="b" 
d="M640 384v256h-256v-256h256zM128 256v768h256v-256h384v-128h128v-256h-128v-128h-640z" />
    <glyph glyph-name="c" unicode="c" 
d="M256 256v128h-128v384h128v128h512v-128h128v-128h-256v128h-256v-384h256v128h256v-128h-128v-128h-512z" />
    <glyph glyph-name="d" unicode="d" 
d="M640 384v256h-256v-256h256zM256 256v128h-128v256h128v128h384v256h256v-768h-640z" />
    <glyph glyph-name="e" unicode="e" 
d="M640 640v128h-256v-128h256zM256 256v128h-128v384h128v128h512v-128h128v-256h-512v-128h384v-128h-512z" />
    <glyph glyph-name="f" unicode="f" 
d="M256 256v384h-128v128h128v256h512v-128h-256v-128h384v-128h-384v-384h-256z" />
    <glyph glyph-name="g" unicode="g" 
d="M640 640v128h-256v-128h256zM256 128v128h-128v128h256v-128h256v256h-512v256h128v128h512v128h256v-128h-128v-640h-128v-128h-512z" />
    <glyph glyph-name="h" unicode="h" 
d="M128 256v768h256v-256h384v-128h128v-384h-256v384h-256v-384h-256z" />
    <glyph glyph-name="i" unicode="i" 
d="M384 256v512h256v-512h-256zM384 896v128h256v-128h-256z" />
    <glyph glyph-name="j" unicode="j" 
d="M256 128v128h-128v128h256v-128h128v512h256v-512h-128v-128h-384zM512 896v128h256v-128h-256z" />
    <glyph glyph-name="k" unicode="k" 
d="M128 256v768h256v-384h128v256h256v-128h-128v-256h128v-256h-256v128h-128v-128h-256z" />
    <glyph glyph-name="l" unicode="l" 
d="M384 256v768h256v-768h-256z" />
    <glyph glyph-name="m" unicode="m" 
d="M128 256v640h640v-128h128v-512h-256v384h-128v-384h-128v384h-128v-384h-128z" />
    <glyph glyph-name="n" unicode="n" 
d="M128 256v640h640v-128h128v-512h-256v512h-256v-512h-256z" />
    <glyph glyph-name="o" unicode="o" 
d="M640 384v384h-256v-384h256zM256 256v128h-128v384h128v128h512v-128h128v-384h-128v-128h-512z" />
    <glyph glyph-name="p" unicode="p" 
d="M640 512v256h-256v-256h256zM128 128v768h640v-128h128v-256h-128v-128h-384v-256h-256z" />
    <glyph glyph-name="q" unicode="q" 
d="M640 512v256h-256v-256h256zM640 128v256h-384v128h-128v256h128v128h640v-768h-256z" />
    <glyph glyph-name="r" unicode="r" 
d="M128 256v640h256v-128h384v-128h128v-128h-256v128h-128v-128h-128v-256h-256z" />
    <glyph glyph-name="s" unicode="s" 
d="M256 256v128h256v128h-256v128h-128v128h128v128h512v-128h-384v-128h384v-128h128v-128h-128v-128h-512z" />
    <glyph glyph-name="t" unicode="t" 
d="M640 384v128h128v-128h-128zM384 256v128h-128v256h-128v128h128v256h256v-256h256v-128h-256v-256h128v-128h-256z" />
    <glyph glyph-name="u" unicode="u" 
d="M256 256v128h-128v512h256v-512h256v512h256v-640h-640z" />
    <glyph glyph-name="v" unicode="v" 
d="M384 256v128h-128v256h-128v256h256v-384h256v384h256v-256h-128v-256h-128v-128h-256z" />
    <glyph glyph-name="w" unicode="w" 
d="M256 256v128h-128v512h256v-384h128v384h128v-384h128v384h128v-512h-128v-128h-128v128h-128v-128h-256z" />
    <glyph glyph-name="x" unicode="x" 
d="M128 256v128h128v-128h-128zM256 384v128h128v-128h-128zM640 256v128h-128v128h-128v128h-128v128h-128v128h384v-128h128v-128h128v-128h128v-256h-256zM640 768v128h128v-128h-128z" />
    <glyph glyph-name="y" unicode="y" 
d="M256 128v256h128v128h-128v128h-128v256h256v-256h256v256h256v-256h-128v-128h-128v-256h-128v-128h-256z" />
    <glyph glyph-name="z" unicode="z" 
d="M128 256v128h128v128h128v128h128v128h-384v128h768v-128h-128v-128h-128v-128h-128v-128h384v-128h-768z" />
  </font>
</defs>
</svg>
